<svg width="25" height="25" viewBox="0 0 25 25" fill="none" xmlns="http://www.w3.org/2000/svg">
<path d="M16.8074 8.48572V8.49572M4.30743 8.98572C4.30743 7.92485 4.72886 6.90744 5.47901 6.15729C6.22915 5.40714 7.24657 4.98572 8.30743 4.98572H16.3074C17.3683 4.98572 18.3857 5.40714 19.1359 6.15729C19.886 6.90744 20.3074 7.92485 20.3074 8.98572V16.9857C20.3074 18.0466 19.886 19.064 19.1359 19.8141C18.3857 20.5643 17.3683 20.9857 16.3074 20.9857H8.30743C7.24657 20.9857 6.22915 20.5643 5.47901 19.8141C4.72886 19.064 4.30743 18.0466 4.30743 16.9857V8.98572ZM9.30743 12.9857C9.30743 13.7814 9.6235 14.5444 10.1861 15.107C10.7487 15.6696 11.5118 15.9857 12.3074 15.9857C13.1031 15.9857 13.8661 15.6696 14.4288 15.107C14.9914 14.5444 15.3074 13.7814 15.3074 12.9857C15.3074 12.1901 14.9914 11.427 14.4288 10.8644C13.8661 10.3018 13.1031 9.98572 12.3074 9.98572C11.5118 9.98572 10.7487 10.3018 10.1861 10.8644C9.6235 11.427 9.30743 12.1901 9.30743 12.9857Z" stroke="white" stroke-width="2" stroke-linecap="round" stroke-linejoin="round"/>
</svg>
