<svg width="25" height="25" viewBox="0 0 25 25" fill="none" xmlns="http://www.w3.org/2000/svg">
<path d="M8.30743 11.9857V16.9857M8.30743 8.98572V8.99572M12.3074 16.9857V11.9857M16.3074 16.9857V13.9857C16.3074 13.4553 16.0967 12.9466 15.7216 12.5715C15.3466 12.1964 14.8379 11.9857 14.3074 11.9857C13.777 11.9857 13.2683 12.1964 12.8932 12.5715C12.5181 12.9466 12.3074 13.4553 12.3074 13.9857M4.30743 6.98572C4.30743 6.45528 4.51815 5.94658 4.89322 5.5715C5.26829 5.19643 5.777 4.98572 6.30743 4.98572H18.3074C18.8379 4.98572 19.3466 5.19643 19.7216 5.5715C20.0967 5.94658 20.3074 6.45528 20.3074 6.98572V18.9857C20.3074 19.5162 20.0967 20.0249 19.7216 20.3999C19.3466 20.775 18.8379 20.9857 18.3074 20.9857H6.30743C5.777 20.9857 5.26829 20.775 4.89322 20.3999C4.51815 20.0249 4.30743 19.5162 4.30743 18.9857V6.98572Z" stroke="white" stroke-width="2" stroke-linecap="round" stroke-linejoin="round"/>
</svg>
