<svg width="25" height="25" viewBox="0 0 25 25" fill="none" xmlns="http://www.w3.org/2000/svg">
<path d="M21.3074 8.90272V12.9367C19.4935 12.7568 17.7639 12.0819 16.3074 10.9857V15.4857C16.3072 16.7068 15.9629 17.9032 15.3141 18.9377C14.6653 19.9722 13.7383 20.8031 12.6391 21.3351C11.5399 21.867 10.3131 22.0786 9.09929 21.9456C7.88542 21.8125 6.73359 21.3403 5.77574 20.5828C4.81789 19.8254 4.09277 18.8135 3.68346 17.663C3.27415 16.5125 3.1972 15.27 3.46142 14.0778C3.72565 12.8856 4.32036 11.792 5.17744 10.9221C6.03451 10.0523 7.11927 9.44152 8.30744 9.15972V13.4857C7.96652 13.7414 7.69663 14.08 7.52337 14.4693C7.35012 14.8587 7.27927 15.2858 7.31754 15.7102C7.35581 16.1347 7.50193 16.5422 7.74203 16.8943C7.98214 17.2464 8.30825 17.5312 8.6894 17.7218C9.07055 17.9124 9.49409 18.0023 9.91981 17.9832C10.3455 17.964 10.7593 17.8364 11.1218 17.6123C11.4843 17.3883 11.7835 17.0753 11.991 16.7031C12.1985 16.3309 12.3074 15.9119 12.3074 15.4857V3.98572H16.3904C16.5987 5.21412 17.1838 6.34734 18.0648 7.22834C18.9458 8.10935 20.079 8.6945 21.3074 8.90272Z" stroke="white" stroke-width="2" stroke-linecap="round" stroke-linejoin="round"/>
</svg>
